<?xml version="1.0" encoding="UTF-8" standalone="no"?>
<!DOCTYPE svg PUBLIC "-//W3C//DTD SVG 1.1//EN"
 "http://www.w3.org/Graphics/SVG/1.1/DTD/svg11.dtd">
<!-- Generated by graphviz version 5.0.0 (20220707.1540)
 -->
<!-- Title: snakemake_dag Pages: 1 -->
<svg width="1382pt" height="620pt"
 viewBox="0.00 0.00 1382.00 620.00" xmlns="http://www.w3.org/2000/svg" xmlns:xlink="http://www.w3.org/1999/xlink">
<g id="graph0" class="graph" transform="scale(1 1) rotate(0) translate(4 616)">
<title>snakemake_dag</title>
<polygon fill="white" stroke="transparent" points="-4,4 -4,-616 1378,-616 1378,4 -4,4"/>
<!-- 0 -->
<g id="node1" class="node">
<title>0</title>
<path fill="none" stroke="#59d856" stroke-width="2" stroke-dasharray="5,2" d="M650,-36C650,-36 620,-36 620,-36 614,-36 608,-30 608,-24 608,-24 608,-12 608,-12 608,-6 614,0 620,0 620,0 650,0 650,0 656,0 662,-6 662,-12 662,-12 662,-24 662,-24 662,-30 656,-36 650,-36"/>
<text text-anchor="middle" x="635" y="-15.5" font-family="sans" font-size="10.00">all</text>
</g>
<!-- 1 -->
<g id="node2" class="node">
<title>1</title>
<path fill="none" stroke="#56d86b" stroke-width="2" stroke-dasharray="5,2" d="M42,-540C42,-540 12,-540 12,-540 6,-540 0,-534 0,-528 0,-528 0,-516 0,-516 0,-510 6,-504 12,-504 12,-504 42,-504 42,-504 48,-504 54,-510 54,-516 54,-516 54,-528 54,-528 54,-534 48,-540 42,-540"/>
<text text-anchor="middle" x="27" y="-519.5" font-family="sans" font-size="10.00">import</text>
</g>
<!-- 1&#45;&gt;0 -->
<g id="edge1" class="edge">
<title>1&#45;&gt;0</title>
<path fill="none" stroke="grey" stroke-width="2" d="M26.41,-503.95C25.53,-477.3 24,-424.12 24,-379 24,-379 24,-379 24,-161 24,-116.87 31.64,-97 68,-72 111.59,-42.02 478.65,-25.12 597.81,-20.39"/>
<polygon fill="grey" stroke="grey" stroke-width="2" points="598.05,-23.88 607.9,-19.99 597.78,-16.89 598.05,-23.88"/>
</g>
<!-- 3 -->
<g id="node4" class="node">
<title>3</title>
<path fill="none" stroke="#56b1d8" stroke-width="2" stroke-dasharray="5,2" d="M99.5,-468C99.5,-468 64.5,-468 64.5,-468 58.5,-468 52.5,-462 52.5,-456 52.5,-456 52.5,-444 52.5,-444 52.5,-438 58.5,-432 64.5,-432 64.5,-432 99.5,-432 99.5,-432 105.5,-432 111.5,-438 111.5,-444 111.5,-444 111.5,-456 111.5,-456 111.5,-462 105.5,-468 99.5,-468"/>
<text text-anchor="middle" x="82" y="-447.5" font-family="sans" font-size="10.00">normalize</text>
</g>
<!-- 1&#45;&gt;3 -->
<g id="edge24" class="edge">
<title>1&#45;&gt;3</title>
<path fill="none" stroke="grey" stroke-width="2" d="M40.6,-503.7C47.12,-495.39 55.07,-485.28 62.25,-476.14"/>
<polygon fill="grey" stroke="grey" stroke-width="2" points="65.13,-478.13 68.56,-468.1 59.63,-473.81 65.13,-478.13"/>
</g>
<!-- 2 -->
<g id="node3" class="node">
<title>2</title>
<path fill="none" stroke="#56d8a2" stroke-width="2" stroke-dasharray="5,2" d="M69,-612C69,-612 39,-612 39,-612 33,-612 27,-606 27,-600 27,-600 27,-588 27,-588 27,-582 33,-576 39,-576 39,-576 69,-576 69,-576 75,-576 81,-582 81,-588 81,-588 81,-600 81,-600 81,-606 75,-612 69,-612"/>
<text text-anchor="middle" x="54" y="-591.5" font-family="sans" font-size="10.00">platform</text>
</g>
<!-- 2&#45;&gt;1 -->
<g id="edge23" class="edge">
<title>2&#45;&gt;1</title>
<path fill="none" stroke="grey" stroke-width="2" d="M47.33,-575.7C44.29,-567.81 40.62,-558.3 37.24,-549.55"/>
<polygon fill="grey" stroke="grey" stroke-width="2" points="40.46,-548.17 33.6,-540.1 33.93,-550.69 40.46,-548.17"/>
</g>
<!-- 2&#45;&gt;3 -->
<g id="edge25" class="edge">
<title>2&#45;&gt;3</title>
<path fill="none" stroke="grey" stroke-width="2" d="M57.38,-575.87C62.17,-551.56 70.99,-506.82 76.67,-478.01"/>
<polygon fill="grey" stroke="grey" stroke-width="2" points="80.11,-478.68 78.61,-468.19 73.24,-477.32 80.11,-478.68"/>
</g>
<!-- 3&#45;&gt;0 -->
<g id="edge2" class="edge">
<title>3&#45;&gt;0</title>
<path fill="none" stroke="grey" stroke-width="2" d="M77.95,-431.62C72.11,-404.97 62,-352.31 62,-307 62,-307 62,-307 62,-161 62,-116.68 70.45,-97.08 107,-72 147.29,-44.36 483.43,-26.13 597.39,-20.7"/>
<polygon fill="grey" stroke="grey" stroke-width="2" points="597.88,-24.18 607.71,-20.21 597.55,-17.19 597.88,-24.18"/>
</g>
<!-- 4 -->
<g id="node5" class="node">
<title>4</title>
<path fill="none" stroke="#d8b456" stroke-width="2" stroke-dasharray="5,2" d="M506,-396C506,-396 476,-396 476,-396 470,-396 464,-390 464,-384 464,-384 464,-372 464,-372 464,-366 470,-360 476,-360 476,-360 506,-360 506,-360 512,-360 518,-366 518,-372 518,-372 518,-384 518,-384 518,-390 512,-396 506,-396"/>
<text text-anchor="middle" x="491" y="-375.5" font-family="sans" font-size="10.00">annotate</text>
</g>
<!-- 3&#45;&gt;4 -->
<g id="edge26" class="edge">
<title>3&#45;&gt;4</title>
<path fill="none" stroke="grey" stroke-width="2" d="M111.74,-443.91C184.84,-431.4 373.16,-399.17 453.63,-385.4"/>
<polygon fill="grey" stroke="grey" stroke-width="2" points="454.53,-388.79 463.8,-383.66 453.35,-381.89 454.53,-388.79"/>
</g>
<!-- 4&#45;&gt;0 -->
<g id="edge3" class="edge">
<title>4&#45;&gt;0</title>
<path fill="none" stroke="grey" stroke-width="2" d="M518.14,-377.15C643.67,-377.13 1162,-368.96 1162,-235 1162,-235 1162,-235 1162,-161 1162,-117.63 1157.08,-97.49 1122,-72 1050.4,-19.97 773.31,-17.51 672.2,-18.41"/>
<polygon fill="grey" stroke="grey" stroke-width="2" points="672.11,-14.91 662.14,-18.51 672.18,-21.91 672.11,-14.91"/>
</g>
<!-- 7 -->
<g id="node8" class="node">
<title>7</title>
<path fill="none" stroke="#d86656" stroke-width="2" stroke-dasharray="5,2" d="M506,-324C506,-324 476,-324 476,-324 470,-324 464,-318 464,-312 464,-312 464,-300 464,-300 464,-294 470,-288 476,-288 476,-288 506,-288 506,-288 512,-288 518,-294 518,-300 518,-300 518,-312 518,-312 518,-318 512,-324 506,-324"/>
<text text-anchor="middle" x="491" y="-303.5" font-family="sans" font-size="10.00">filter</text>
</g>
<!-- 4&#45;&gt;7 -->
<g id="edge29" class="edge">
<title>4&#45;&gt;7</title>
<path fill="none" stroke="grey" stroke-width="2" d="M491,-359.7C491,-351.98 491,-342.71 491,-334.11"/>
<polygon fill="grey" stroke="grey" stroke-width="2" points="494.5,-334.1 491,-324.1 487.5,-334.1 494.5,-334.1"/>
</g>
<!-- 9 -->
<g id="node10" class="node">
<title>9</title>
<path fill="none" stroke="#56d87b" stroke-width="2" stroke-dasharray="5,2" d="M132,-252C132,-252 102,-252 102,-252 96,-252 90,-246 90,-240 90,-240 90,-228 90,-228 90,-222 96,-216 102,-216 102,-216 132,-216 132,-216 138,-216 144,-222 144,-228 144,-228 144,-240 144,-240 144,-246 138,-252 132,-252"/>
<text text-anchor="middle" x="117" y="-231.5" font-family="sans" font-size="10.00">hist</text>
</g>
<!-- 4&#45;&gt;9 -->
<g id="edge31" class="edge">
<title>4&#45;&gt;9</title>
<path fill="none" stroke="grey" stroke-width="2" d="M463.69,-367.1C406.66,-346.36 270.86,-296.57 158,-252 156.61,-251.45 155.2,-250.89 153.77,-250.32"/>
<polygon fill="grey" stroke="grey" stroke-width="2" points="154.88,-246.99 144.29,-246.47 152.24,-253.47 154.88,-246.99"/>
</g>
<!-- 5 -->
<g id="node6" class="node">
<title>5</title>
<path fill="none" stroke="#d8a456" stroke-width="2" stroke-dasharray="5,2" d="M510,-468C510,-468 472,-468 472,-468 466,-468 460,-462 460,-456 460,-456 460,-444 460,-444 460,-438 466,-432 472,-432 472,-432 510,-432 510,-432 516,-432 522,-438 522,-444 522,-444 522,-456 522,-456 522,-462 516,-468 510,-468"/>
<text text-anchor="middle" x="491" y="-447.5" font-family="sans" font-size="10.00">annotation</text>
</g>
<!-- 5&#45;&gt;4 -->
<g id="edge27" class="edge">
<title>5&#45;&gt;4</title>
<path fill="none" stroke="grey" stroke-width="2" d="M491,-431.7C491,-423.98 491,-414.71 491,-406.11"/>
<polygon fill="grey" stroke="grey" stroke-width="2" points="494.5,-406.1 491,-396.1 487.5,-406.1 494.5,-406.1"/>
</g>
<!-- 6 -->
<g id="node7" class="node">
<title>6</title>
<path fill="none" stroke="#b6d856" stroke-width="2" stroke-dasharray="5,2" d="M1216,-468C1216,-468 1184,-468 1184,-468 1178,-468 1172,-462 1172,-456 1172,-456 1172,-444 1172,-444 1172,-438 1178,-432 1184,-432 1184,-432 1216,-432 1216,-432 1222,-432 1228,-438 1228,-444 1228,-444 1228,-456 1228,-456 1228,-462 1222,-468 1216,-468"/>
<text text-anchor="middle" x="1200" y="-447.5" font-family="sans" font-size="10.00">organism</text>
</g>
<!-- 6&#45;&gt;4 -->
<g id="edge28" class="edge">
<title>6&#45;&gt;4</title>
<path fill="none" stroke="grey" stroke-width="2" d="M1171.77,-446.21C1060.78,-435.25 654.35,-395.13 528.44,-382.7"/>
<polygon fill="grey" stroke="grey" stroke-width="2" points="528.46,-379.18 518.16,-381.68 527.77,-386.15 528.46,-379.18"/>
</g>
<!-- 23 -->
<g id="node24" class="node">
<title>23</title>
<path fill="none" stroke="#c6d856" stroke-width="2" stroke-dasharray="5,2" d="M1122,-180C1122,-180 962,-180 962,-180 956,-180 950,-174 950,-168 950,-168 950,-156 950,-156 950,-150 956,-144 962,-144 962,-144 1122,-144 1122,-144 1128,-144 1134,-150 1134,-156 1134,-156 1134,-168 1134,-168 1134,-174 1128,-180 1122,-180"/>
<text text-anchor="middle" x="1042" y="-165" font-family="sans" font-size="10.00">goana</text>
<text text-anchor="middle" x="1042" y="-154" font-family="sans" font-size="10.00">contrast: colitis.inflamed&#45;colitis.normal</text>
</g>
<!-- 6&#45;&gt;23 -->
<g id="edge47" class="edge">
<title>6&#45;&gt;23</title>
<path fill="none" stroke="grey" stroke-width="2" d="M1190.59,-431.97C1164.03,-383.89 1088.37,-246.93 1056.47,-189.19"/>
<polygon fill="grey" stroke="grey" stroke-width="2" points="1059.46,-187.37 1051.56,-180.31 1053.33,-190.75 1059.46,-187.37"/>
</g>
<!-- 25 -->
<g id="node26" class="node">
<title>25</title>
<path fill="none" stroke="#56d8b1" stroke-width="2" stroke-dasharray="5,2" d="M1362,-180C1362,-180 1202,-180 1202,-180 1196,-180 1190,-174 1190,-168 1190,-168 1190,-156 1190,-156 1190,-150 1196,-144 1202,-144 1202,-144 1362,-144 1362,-144 1368,-144 1374,-150 1374,-156 1374,-156 1374,-168 1374,-168 1374,-174 1368,-180 1362,-180"/>
<text text-anchor="middle" x="1282" y="-165" font-family="sans" font-size="10.00">kegga</text>
<text text-anchor="middle" x="1282" y="-154" font-family="sans" font-size="10.00">contrast: colitis.inflamed&#45;colitis.normal</text>
</g>
<!-- 6&#45;&gt;25 -->
<g id="edge50" class="edge">
<title>6&#45;&gt;25</title>
<path fill="none" stroke="grey" stroke-width="2" d="M1204.88,-431.97C1218.58,-384.19 1257.45,-248.62 1274.18,-190.27"/>
<polygon fill="grey" stroke="grey" stroke-width="2" points="1277.65,-190.88 1277.04,-180.31 1270.92,-188.95 1277.65,-190.88"/>
</g>
<!-- 7&#45;&gt;0 -->
<g id="edge4" class="edge">
<title>7&#45;&gt;0</title>
<path fill="none" stroke="grey" stroke-width="2" d="M463.93,-298.35C369.29,-273.92 64.3,-184.7 165,-72 193.73,-39.85 491.7,-24.78 597.77,-20.4"/>
<polygon fill="grey" stroke="grey" stroke-width="2" points="598.15,-23.89 608,-19.99 597.86,-16.9 598.15,-23.89"/>
</g>
<!-- 8 -->
<g id="node9" class="node">
<title>8</title>
<path fill="none" stroke="#568ad8" stroke-width="2" stroke-dasharray="5,2" d="M506,-180C506,-180 476,-180 476,-180 470,-180 464,-174 464,-168 464,-168 464,-156 464,-156 464,-150 470,-144 476,-144 476,-144 506,-144 506,-144 512,-144 518,-150 518,-156 518,-156 518,-168 518,-168 518,-174 512,-180 506,-180"/>
<text text-anchor="middle" x="491" y="-159.5" font-family="sans" font-size="10.00">correct</text>
</g>
<!-- 7&#45;&gt;8 -->
<g id="edge30" class="edge">
<title>7&#45;&gt;8</title>
<path fill="none" stroke="grey" stroke-width="2" d="M491,-287.87C491,-263.67 491,-219.21 491,-190.39"/>
<polygon fill="grey" stroke="grey" stroke-width="2" points="494.5,-190.19 491,-180.19 487.5,-190.19 494.5,-190.19"/>
</g>
<!-- 19 -->
<g id="node20" class="node">
<title>19</title>
<path fill="none" stroke="#567bd8" stroke-width="2" stroke-dasharray="5,2" d="M956,-252C956,-252 926,-252 926,-252 920,-252 914,-246 914,-240 914,-240 914,-228 914,-228 914,-222 920,-216 926,-216 926,-216 956,-216 956,-216 962,-216 968,-222 968,-228 968,-228 968,-240 968,-240 968,-246 962,-252 956,-252"/>
<text text-anchor="middle" x="941" y="-231.5" font-family="sans" font-size="10.00">limma</text>
</g>
<!-- 7&#45;&gt;19 -->
<g id="edge41" class="edge">
<title>7&#45;&gt;19</title>
<path fill="none" stroke="grey" stroke-width="2" d="M518.14,-300.78C595.19,-288.79 815.45,-254.53 903.73,-240.8"/>
<polygon fill="grey" stroke="grey" stroke-width="2" points="904.49,-244.22 913.83,-239.23 903.41,-237.31 904.49,-244.22"/>
</g>
<!-- 8&#45;&gt;0 -->
<g id="edge5" class="edge">
<title>8&#45;&gt;0</title>
<path fill="none" stroke="grey" stroke-width="2" d="M463.92,-149.01C447.67,-140.21 428.38,-126.56 419,-108 411.78,-93.72 409.13,-84.59 419,-72 440.77,-44.24 541.51,-29.11 597.39,-22.72"/>
<polygon fill="grey" stroke="grey" stroke-width="2" points="598.05,-26.17 607.6,-21.59 597.28,-19.21 598.05,-26.17"/>
</g>
<!-- 10 -->
<g id="node11" class="node">
<title>10</title>
<path fill="none" stroke="#56c9d8" stroke-width="2" stroke-dasharray="5,2" d="M470,-108C470,-108 440,-108 440,-108 434,-108 428,-102 428,-96 428,-96 428,-84 428,-84 428,-78 434,-72 440,-72 440,-72 470,-72 470,-72 476,-72 482,-78 482,-84 482,-84 482,-96 482,-96 482,-102 476,-108 470,-108"/>
<text text-anchor="middle" x="455" y="-87.5" font-family="sans" font-size="10.00">boxplot</text>
</g>
<!-- 8&#45;&gt;10 -->
<g id="edge32" class="edge">
<title>8&#45;&gt;10</title>
<path fill="none" stroke="grey" stroke-width="2" d="M482.1,-143.7C478,-135.73 473.05,-126.1 468.51,-117.26"/>
<polygon fill="grey" stroke="grey" stroke-width="2" points="471.48,-115.4 463.8,-108.1 465.26,-118.6 471.48,-115.4"/>
</g>
<!-- 11 -->
<g id="node12" class="node">
<title>11</title>
<path fill="none" stroke="#d88d56" stroke-width="2" stroke-dasharray="5,2" d="M542,-108C542,-108 512,-108 512,-108 506,-108 500,-102 500,-96 500,-96 500,-84 500,-84 500,-78 506,-72 512,-72 512,-72 542,-72 542,-72 548,-72 554,-78 554,-84 554,-84 554,-96 554,-96 554,-102 548,-108 542,-108"/>
<text text-anchor="middle" x="527" y="-87.5" font-family="sans" font-size="10.00">pca</text>
</g>
<!-- 8&#45;&gt;11 -->
<g id="edge33" class="edge">
<title>8&#45;&gt;11</title>
<path fill="none" stroke="grey" stroke-width="2" d="M499.9,-143.7C504,-135.73 508.95,-126.1 513.49,-117.26"/>
<polygon fill="grey" stroke="grey" stroke-width="2" points="516.74,-118.6 518.2,-108.1 510.52,-115.4 516.74,-118.6"/>
</g>
<!-- 12 -->
<g id="node13" class="node">
<title>12</title>
<path fill="none" stroke="#d85656" stroke-width="2" stroke-dasharray="5,2" d="M614,-108C614,-108 584,-108 584,-108 578,-108 572,-102 572,-96 572,-96 572,-84 572,-84 572,-78 578,-72 584,-72 584,-72 614,-72 614,-72 620,-72 626,-78 626,-84 626,-84 626,-96 626,-96 626,-102 620,-108 614,-108"/>
<text text-anchor="middle" x="599" y="-87.5" font-family="sans" font-size="10.00">ma</text>
</g>
<!-- 8&#45;&gt;12 -->
<g id="edge34" class="edge">
<title>8&#45;&gt;12</title>
<path fill="none" stroke="grey" stroke-width="2" d="M517.42,-143.88C531.41,-134.81 548.78,-123.55 563.89,-113.76"/>
<polygon fill="grey" stroke="grey" stroke-width="2" points="565.99,-116.57 572.48,-108.19 562.18,-110.69 565.99,-116.57"/>
</g>
<!-- 13 -->
<g id="node14" class="node">
<title>13</title>
<path fill="none" stroke="#d8c356" stroke-width="2" stroke-dasharray="5,2" d="M686,-108C686,-108 656,-108 656,-108 650,-108 644,-102 644,-96 644,-96 644,-84 644,-84 644,-78 650,-72 656,-72 656,-72 686,-72 686,-72 692,-72 698,-78 698,-84 698,-84 698,-96 698,-96 698,-102 692,-108 686,-108"/>
<text text-anchor="middle" x="671" y="-87.5" font-family="sans" font-size="10.00">mds</text>
</g>
<!-- 8&#45;&gt;13 -->
<g id="edge35" class="edge">
<title>8&#45;&gt;13</title>
<path fill="none" stroke="grey" stroke-width="2" d="M518.08,-151.84C545.35,-142.43 588.77,-126.99 634.51,-108.04"/>
<polygon fill="grey" stroke="grey" stroke-width="2" points="636.11,-111.16 643.99,-104.07 633.41,-104.7 636.11,-111.16"/>
</g>
<!-- 14 -->
<g id="node15" class="node">
<title>14</title>
<path fill="none" stroke="#56d8c9" stroke-width="2" stroke-dasharray="5,2" d="M758,-108C758,-108 728,-108 728,-108 722,-108 716,-102 716,-96 716,-96 716,-84 716,-84 716,-78 722,-72 728,-72 728,-72 758,-72 758,-72 764,-72 770,-78 770,-84 770,-84 770,-96 770,-96 770,-102 764,-108 758,-108"/>
<text text-anchor="middle" x="743" y="-87.5" font-family="sans" font-size="10.00">dens</text>
</g>
<!-- 8&#45;&gt;14 -->
<g id="edge36" class="edge">
<title>8&#45;&gt;14</title>
<path fill="none" stroke="grey" stroke-width="2" d="M518.11,-156.16C557.76,-148.71 633.86,-132.93 706.03,-107.99"/>
<polygon fill="grey" stroke="grey" stroke-width="2" points="707.45,-111.2 715.72,-104.57 705.13,-104.6 707.45,-111.2"/>
</g>
<!-- 15 -->
<g id="node16" class="node">
<title>15</title>
<path fill="none" stroke="#56a2d8" stroke-width="2" stroke-dasharray="5,2" d="M216,-108C216,-108 186,-108 186,-108 180,-108 174,-102 174,-96 174,-96 174,-84 174,-84 174,-78 180,-72 186,-72 186,-72 216,-72 216,-72 222,-72 228,-78 228,-84 228,-84 228,-96 228,-96 228,-102 222,-108 216,-108"/>
<text text-anchor="middle" x="201" y="-87.5" font-family="sans" font-size="10.00">hm</text>
</g>
<!-- 8&#45;&gt;15 -->
<g id="edge37" class="edge">
<title>8&#45;&gt;15</title>
<path fill="none" stroke="grey" stroke-width="2" d="M463.75,-157.47C418.34,-151.12 324.41,-136.06 237.93,-107.9"/>
<polygon fill="grey" stroke="grey" stroke-width="2" points="238.84,-104.51 228.24,-104.68 236.63,-111.15 238.84,-104.51"/>
</g>
<!-- 16 -->
<g id="node17" class="node">
<title>16</title>
<path fill="none" stroke="#9fd856" stroke-width="2" stroke-dasharray="5,2" d="M288,-108C288,-108 258,-108 258,-108 252,-108 246,-102 246,-96 246,-96 246,-84 246,-84 246,-78 252,-72 258,-72 258,-72 288,-72 288,-72 294,-72 300,-78 300,-84 300,-84 300,-96 300,-96 300,-102 294,-108 288,-108"/>
<text text-anchor="middle" x="273" y="-87.5" font-family="sans" font-size="10.00">msd</text>
</g>
<!-- 8&#45;&gt;16 -->
<g id="edge38" class="edge">
<title>8&#45;&gt;16</title>
<path fill="none" stroke="grey" stroke-width="2" d="M463.73,-154.49C429.58,-146.04 369.23,-130.08 309.84,-108.04"/>
<polygon fill="grey" stroke="grey" stroke-width="2" points="310.92,-104.7 300.32,-104.45 308.45,-111.25 310.92,-104.7"/>
</g>
<!-- 17 -->
<g id="node18" class="node">
<title>17</title>
<path fill="none" stroke="#78d856" stroke-width="2" stroke-dasharray="5,2" d="M360,-108C360,-108 330,-108 330,-108 324,-108 318,-102 318,-96 318,-96 318,-84 318,-84 318,-78 324,-72 330,-72 330,-72 360,-72 360,-72 366,-72 372,-78 372,-84 372,-84 372,-96 372,-96 372,-102 366,-108 360,-108"/>
<text text-anchor="middle" x="345" y="-87.5" font-family="sans" font-size="10.00">rle</text>
</g>
<!-- 8&#45;&gt;17 -->
<g id="edge39" class="edge">
<title>8&#45;&gt;17</title>
<path fill="none" stroke="grey" stroke-width="2" d="M463.88,-148C440.67,-136.87 407.06,-120.75 381.49,-108.5"/>
<polygon fill="grey" stroke="grey" stroke-width="2" points="383,-105.34 372.47,-104.17 379.97,-111.65 383,-105.34"/>
</g>
<!-- 22 -->
<g id="node23" class="node">
<title>22</title>
<path fill="none" stroke="#d87d56" stroke-width="2" stroke-dasharray="5,2" d="M830,-108C830,-108 800,-108 800,-108 794,-108 788,-102 788,-96 788,-96 788,-84 788,-84 788,-78 794,-72 800,-72 800,-72 830,-72 830,-72 836,-72 842,-78 842,-84 842,-84 842,-96 842,-96 842,-102 836,-108 830,-108"/>
<text text-anchor="middle" x="815" y="-87.5" font-family="sans" font-size="10.00">heatmap</text>
</g>
<!-- 8&#45;&gt;22 -->
<g id="edge44" class="edge">
<title>8&#45;&gt;22</title>
<path fill="none" stroke="grey" stroke-width="2" d="M518.17,-158.37C568.32,-153.02 678.66,-138.92 778.19,-107.81"/>
<polygon fill="grey" stroke="grey" stroke-width="2" points="779.32,-111.12 787.78,-104.75 777.19,-104.46 779.32,-111.12"/>
</g>
<!-- 9&#45;&gt;0 -->
<g id="edge6" class="edge">
<title>9&#45;&gt;0</title>
<path fill="none" stroke="grey" stroke-width="2" d="M112.42,-215.81C104.79,-182.85 93.82,-110.64 132,-72 164.66,-38.94 487.2,-24.32 597.92,-20.24"/>
<polygon fill="grey" stroke="grey" stroke-width="2" points="598.09,-23.74 607.95,-19.88 597.83,-16.74 598.09,-23.74"/>
</g>
<!-- 10&#45;&gt;0 -->
<g id="edge7" class="edge">
<title>10&#45;&gt;0</title>
<path fill="none" stroke="grey" stroke-width="2" d="M482.01,-75.93C485.03,-74.57 488.07,-73.23 491,-72 526.93,-56.94 568.81,-41.79 598.11,-31.57"/>
<polygon fill="grey" stroke="grey" stroke-width="2" points="599.62,-34.75 607.92,-28.16 597.32,-28.13 599.62,-34.75"/>
</g>
<!-- 11&#45;&gt;0 -->
<g id="edge8" class="edge">
<title>11&#45;&gt;0</title>
<path fill="none" stroke="grey" stroke-width="2" d="M553.42,-71.88C567.41,-62.81 584.78,-51.55 599.89,-41.76"/>
<polygon fill="grey" stroke="grey" stroke-width="2" points="601.99,-44.57 608.48,-36.19 598.18,-38.69 601.99,-44.57"/>
</g>
<!-- 12&#45;&gt;0 -->
<g id="edge9" class="edge">
<title>12&#45;&gt;0</title>
<path fill="none" stroke="grey" stroke-width="2" d="M607.9,-71.7C612,-63.73 616.95,-54.1 621.49,-45.26"/>
<polygon fill="grey" stroke="grey" stroke-width="2" points="624.74,-46.6 626.2,-36.1 618.52,-43.4 624.74,-46.6"/>
</g>
<!-- 13&#45;&gt;0 -->
<g id="edge10" class="edge">
<title>13&#45;&gt;0</title>
<path fill="none" stroke="grey" stroke-width="2" d="M662.1,-71.7C658,-63.73 653.05,-54.1 648.51,-45.26"/>
<polygon fill="grey" stroke="grey" stroke-width="2" points="651.48,-43.4 643.8,-36.1 645.26,-46.6 651.48,-43.4"/>
</g>
<!-- 14&#45;&gt;0 -->
<g id="edge11" class="edge">
<title>14&#45;&gt;0</title>
<path fill="none" stroke="grey" stroke-width="2" d="M716.58,-71.88C702.59,-62.81 685.22,-51.55 670.11,-41.76"/>
<polygon fill="grey" stroke="grey" stroke-width="2" points="671.82,-38.69 661.52,-36.19 668.01,-44.57 671.82,-38.69"/>
</g>
<!-- 15&#45;&gt;0 -->
<g id="edge12" class="edge">
<title>15&#45;&gt;0</title>
<path fill="none" stroke="grey" stroke-width="2" d="M228.17,-75.1C231.11,-73.93 234.08,-72.86 237,-72 365.78,-34.02 526.08,-23.19 597.57,-20.15"/>
<polygon fill="grey" stroke="grey" stroke-width="2" points="598,-23.64 607.86,-19.75 597.73,-16.64 598,-23.64"/>
</g>
<!-- 16&#45;&gt;0 -->
<g id="edge13" class="edge">
<title>16&#45;&gt;0</title>
<path fill="none" stroke="grey" stroke-width="2" d="M300.2,-75.19C303.13,-74 306.1,-72.9 309,-72 410.72,-40.4 536.46,-26.76 597.81,-21.64"/>
<polygon fill="grey" stroke="grey" stroke-width="2" points="598.11,-25.13 607.79,-20.84 597.54,-18.15 598.11,-25.13"/>
</g>
<!-- 17&#45;&gt;0 -->
<g id="edge14" class="edge">
<title>17&#45;&gt;0</title>
<path fill="none" stroke="grey" stroke-width="2" d="M372.09,-76.95C376.68,-75.15 381.44,-73.42 386,-72 459.53,-49.14 548.3,-32.85 597.51,-24.77"/>
<polygon fill="grey" stroke="grey" stroke-width="2" points="598.37,-28.18 607.68,-23.13 597.25,-21.27 598.37,-28.18"/>
</g>
<!-- 18 -->
<g id="node19" class="node">
<title>18</title>
<path fill="none" stroke="#56d88a" stroke-width="2" stroke-dasharray="5,2" d="M920,-180C920,-180 760,-180 760,-180 754,-180 748,-174 748,-168 748,-168 748,-156 748,-156 748,-150 754,-144 760,-144 760,-144 920,-144 920,-144 926,-144 932,-150 932,-156 932,-156 932,-168 932,-168 932,-174 926,-180 920,-180"/>
<text text-anchor="middle" x="840" y="-165" font-family="sans" font-size="10.00">toptable</text>
<text text-anchor="middle" x="840" y="-154" font-family="sans" font-size="10.00">contrast: colitis.inflamed&#45;colitis.normal</text>
</g>
<!-- 18&#45;&gt;0 -->
<g id="edge15" class="edge">
<title>18&#45;&gt;0</title>
<path fill="none" stroke="grey" stroke-width="2" d="M883.56,-143.87C898.86,-135.49 914.37,-123.74 923,-108 930.69,-93.97 933.24,-84.29 923,-72 891.51,-34.19 742.99,-23.26 672.42,-20.17"/>
<polygon fill="grey" stroke="grey" stroke-width="2" points="672.33,-16.67 662.19,-19.76 672.04,-23.66 672.33,-16.67"/>
</g>
<!-- 20 -->
<g id="node21" class="node">
<title>20</title>
<path fill="none" stroke="#8fd856" stroke-width="2" stroke-dasharray="5,2" d="M1012,-108C1012,-108 982,-108 982,-108 976,-108 970,-102 970,-96 970,-96 970,-84 970,-84 970,-78 976,-72 982,-72 982,-72 1012,-72 1012,-72 1018,-72 1024,-78 1024,-84 1024,-84 1024,-96 1024,-96 1024,-102 1018,-108 1012,-108"/>
<text text-anchor="middle" x="997" y="-87.5" font-family="sans" font-size="10.00">pvalue</text>
</g>
<!-- 18&#45;&gt;20 -->
<g id="edge42" class="edge">
<title>18&#45;&gt;20</title>
<path fill="none" stroke="grey" stroke-width="2" d="M878.41,-143.88C903.41,-132.73 935.83,-118.27 960.46,-107.29"/>
<polygon fill="grey" stroke="grey" stroke-width="2" points="962.11,-110.39 969.82,-103.12 959.26,-104 962.11,-110.39"/>
</g>
<!-- 21 -->
<g id="node22" class="node">
<title>21</title>
<path fill="none" stroke="#56d8d8" stroke-width="2" stroke-dasharray="5,2" d="M902,-108C902,-108 872,-108 872,-108 866,-108 860,-102 860,-96 860,-96 860,-84 860,-84 860,-78 866,-72 872,-72 872,-72 902,-72 902,-72 908,-72 914,-78 914,-84 914,-84 914,-96 914,-96 914,-102 908,-108 902,-108"/>
<text text-anchor="middle" x="887" y="-87.5" font-family="sans" font-size="10.00">volcano</text>
</g>
<!-- 18&#45;&gt;21 -->
<g id="edge43" class="edge">
<title>18&#45;&gt;21</title>
<path fill="none" stroke="grey" stroke-width="2" d="M851.62,-143.7C857.14,-135.47 863.85,-125.48 869.93,-116.42"/>
<polygon fill="grey" stroke="grey" stroke-width="2" points="872.85,-118.36 875.52,-108.1 867.04,-114.46 872.85,-118.36"/>
</g>
<!-- 18&#45;&gt;22 -->
<g id="edge45" class="edge">
<title>18&#45;&gt;22</title>
<path fill="none" stroke="grey" stroke-width="2" d="M833.82,-143.7C831,-135.81 827.61,-126.3 824.48,-117.55"/>
<polygon fill="grey" stroke="grey" stroke-width="2" points="827.77,-116.34 821.11,-108.1 821.18,-118.7 827.77,-116.34"/>
</g>
<!-- 19&#45;&gt;18 -->
<g id="edge40" class="edge">
<title>19&#45;&gt;18</title>
<path fill="none" stroke="grey" stroke-width="2" d="M916.29,-215.88C903.33,-206.89 887.27,-195.76 873.23,-186.03"/>
<polygon fill="grey" stroke="grey" stroke-width="2" points="875.02,-183.01 864.8,-180.19 871.03,-188.76 875.02,-183.01"/>
</g>
<!-- 19&#45;&gt;23 -->
<g id="edge46" class="edge">
<title>19&#45;&gt;23</title>
<path fill="none" stroke="grey" stroke-width="2" d="M965.71,-215.88C978.67,-206.89 994.73,-195.76 1008.77,-186.03"/>
<polygon fill="grey" stroke="grey" stroke-width="2" points="1010.97,-188.76 1017.2,-180.19 1006.98,-183.01 1010.97,-188.76"/>
</g>
<!-- 19&#45;&gt;25 -->
<g id="edge49" class="edge">
<title>19&#45;&gt;25</title>
<path fill="none" stroke="grey" stroke-width="2" d="M968.04,-227.45C1015.23,-217.76 1114.67,-197.35 1189.07,-182.08"/>
<polygon fill="grey" stroke="grey" stroke-width="2" points="1189.84,-185.49 1198.93,-180.05 1188.43,-178.64 1189.84,-185.49"/>
</g>
<!-- 20&#45;&gt;0 -->
<g id="edge16" class="edge">
<title>20&#45;&gt;0</title>
<path fill="none" stroke="grey" stroke-width="2" d="M969.96,-76.77C965.37,-74.99 960.59,-73.31 956,-72 855.58,-43.3 732.77,-28.41 672.29,-22.35"/>
<polygon fill="grey" stroke="grey" stroke-width="2" points="672.38,-18.85 662.09,-21.36 671.7,-25.81 672.38,-18.85"/>
</g>
<!-- 21&#45;&gt;0 -->
<g id="edge17" class="edge">
<title>21&#45;&gt;0</title>
<path fill="none" stroke="grey" stroke-width="2" d="M859.72,-75.43C856.81,-74.19 853.87,-73.02 851,-72 789.68,-50.25 715.51,-34.17 671.97,-25.72"/>
<polygon fill="grey" stroke="grey" stroke-width="2" points="672.59,-22.28 662.11,-23.84 671.27,-29.15 672.59,-22.28"/>
</g>
<!-- 22&#45;&gt;0 -->
<g id="edge18" class="edge">
<title>22&#45;&gt;0</title>
<path fill="none" stroke="grey" stroke-width="2" d="M787.99,-75.93C784.97,-74.57 781.93,-73.23 779,-72 743.07,-56.94 701.19,-41.79 671.89,-31.57"/>
<polygon fill="grey" stroke="grey" stroke-width="2" points="672.68,-28.13 662.08,-28.16 670.38,-34.75 672.68,-28.13"/>
</g>
<!-- 23&#45;&gt;0 -->
<g id="edge19" class="edge">
<title>23&#45;&gt;0</title>
<path fill="none" stroke="grey" stroke-width="2" d="M1068.58,-143.75C1094.01,-125.17 1125.69,-95.15 1105,-72 1076.27,-39.85 778.3,-24.78 672.23,-20.4"/>
<polygon fill="grey" stroke="grey" stroke-width="2" points="672.14,-16.9 662,-19.99 671.85,-23.89 672.14,-16.9"/>
</g>
<!-- 24 -->
<g id="node25" class="node">
<title>24</title>
<path fill="none" stroke="#68d856" stroke-width="2" stroke-dasharray="5,2" d="M1084,-108C1084,-108 1054,-108 1054,-108 1048,-108 1042,-102 1042,-96 1042,-96 1042,-84 1042,-84 1042,-78 1048,-72 1054,-72 1054,-72 1084,-72 1084,-72 1090,-72 1096,-78 1096,-84 1096,-84 1096,-96 1096,-96 1096,-102 1090,-108 1084,-108"/>
<text text-anchor="middle" x="1069" y="-87.5" font-family="sans" font-size="10.00">topgo</text>
</g>
<!-- 23&#45;&gt;24 -->
<g id="edge48" class="edge">
<title>23&#45;&gt;24</title>
<path fill="none" stroke="grey" stroke-width="2" d="M1048.67,-143.7C1051.71,-135.81 1055.38,-126.3 1058.76,-117.55"/>
<polygon fill="grey" stroke="grey" stroke-width="2" points="1062.07,-118.69 1062.4,-108.1 1055.54,-116.17 1062.07,-118.69"/>
</g>
<!-- 24&#45;&gt;0 -->
<g id="edge20" class="edge">
<title>24&#45;&gt;0</title>
<path fill="none" stroke="grey" stroke-width="2" d="M1041.83,-75.1C1038.89,-73.93 1035.92,-72.86 1033,-72 904.22,-34.02 743.92,-23.19 672.43,-20.15"/>
<polygon fill="grey" stroke="grey" stroke-width="2" points="672.27,-16.64 662.14,-19.75 672,-23.64 672.27,-16.64"/>
</g>
<!-- 25&#45;&gt;0 -->
<g id="edge21" class="edge">
<title>25&#45;&gt;0</title>
<path fill="none" stroke="grey" stroke-width="2" d="M1267.56,-143.72C1248.85,-122.69 1214.1,-88.02 1176,-72 1084.65,-33.59 779.11,-22.53 672.27,-19.8"/>
<polygon fill="grey" stroke="grey" stroke-width="2" points="672.35,-16.3 662.27,-19.55 672.18,-23.3 672.35,-16.3"/>
</g>
<!-- 26 -->
<g id="node27" class="node">
<title>26</title>
<path fill="none" stroke="#566bd8" stroke-width="2" stroke-dasharray="5,2" d="M1290,-108C1290,-108 1260,-108 1260,-108 1254,-108 1248,-102 1248,-96 1248,-96 1248,-84 1248,-84 1248,-78 1254,-72 1260,-72 1260,-72 1290,-72 1290,-72 1296,-72 1302,-78 1302,-84 1302,-84 1302,-96 1302,-96 1302,-102 1296,-108 1290,-108"/>
<text text-anchor="middle" x="1275" y="-87.5" font-family="sans" font-size="10.00">topkegg</text>
</g>
<!-- 25&#45;&gt;26 -->
<g id="edge51" class="edge">
<title>25&#45;&gt;26</title>
<path fill="none" stroke="grey" stroke-width="2" d="M1280.27,-143.7C1279.5,-135.98 1278.57,-126.71 1277.71,-118.11"/>
<polygon fill="grey" stroke="grey" stroke-width="2" points="1281.19,-117.71 1276.71,-108.1 1274.22,-118.4 1281.19,-117.71"/>
</g>
<!-- 26&#45;&gt;0 -->
<g id="edge22" class="edge">
<title>26&#45;&gt;0</title>
<path fill="none" stroke="grey" stroke-width="2" d="M1247.83,-79.19C1239.33,-76.47 1229.87,-73.78 1221,-72 1016.53,-31.06 765.55,-21.71 672.24,-19.6"/>
<polygon fill="grey" stroke="grey" stroke-width="2" points="672.24,-16.1 662.16,-19.39 672.09,-23.1 672.24,-16.1"/>
</g>
</g>
</svg>
