<?xml version="1.0" encoding="UTF-8" standalone="no"?>
<!DOCTYPE svg PUBLIC "-//W3C//DTD SVG 1.1//EN"
 "http://www.w3.org/Graphics/SVG/1.1/DTD/svg11.dtd">
<!-- Generated by graphviz version 7.0.5 (20221223.1930)
 -->
<!-- Title: snakemake_dag Pages: 1 -->
<svg width="1214pt" height="692pt"
 viewBox="0.00 0.00 1214.00 692.00" xmlns="http://www.w3.org/2000/svg" xmlns:xlink="http://www.w3.org/1999/xlink">
<g id="graph0" class="graph" transform="scale(1 1) rotate(0) translate(4 688)">
<title>snakemake_dag</title>
<polygon fill="white" stroke="none" points="-4,4 -4,-688 1210,-688 1210,4 -4,4"/>
<!-- 0 -->
<g id="node1" class="node">
<title>0</title>
<path fill="none" stroke="#56d89a" stroke-width="2" d="M584,-36C584,-36 554,-36 554,-36 548,-36 542,-30 542,-24 542,-24 542,-12 542,-12 542,-6 548,0 554,0 554,0 584,0 584,0 590,0 596,-6 596,-12 596,-12 596,-24 596,-24 596,-30 590,-36 584,-36"/>
<text text-anchor="middle" x="569" y="-15.5" font-family="sans" font-size="10.00">all</text>
</g>
<!-- 1 -->
<g id="node2" class="node">
<title>1</title>
<path fill="none" stroke="#56c1d8" stroke-width="2" d="M194,-324C194,-324 164,-324 164,-324 158,-324 152,-318 152,-312 152,-312 152,-300 152,-300 152,-294 158,-288 164,-288 164,-288 194,-288 194,-288 200,-288 206,-294 206,-300 206,-300 206,-312 206,-312 206,-318 200,-324 194,-324"/>
<text text-anchor="middle" x="179" y="-303.5" font-family="sans" font-size="10.00">design</text>
</g>
<!-- 1&#45;&gt;0 -->
<g id="edge18" class="edge">
<title>1&#45;&gt;0</title>
<path fill="none" stroke="grey" stroke-width="2" d="M171.72,-287.03C155.53,-243.8 122.11,-133.08 177,-72 223.01,-20.8 437.32,-17.29 528.15,-18.17"/>
<polygon fill="grey" stroke="grey" stroke-width="2" points="528.05,-21.67 538.09,-18.3 528.14,-14.67 528.05,-21.67"/>
</g>
<!-- 21 -->
<g id="node22" class="node">
<title>21</title>
<path fill="none" stroke="#56d0d8" stroke-width="2" d="M296,-252C296,-252 266,-252 266,-252 260,-252 254,-246 254,-240 254,-240 254,-228 254,-228 254,-222 260,-216 266,-216 266,-216 296,-216 296,-216 302,-216 308,-222 308,-228 308,-228 308,-240 308,-240 308,-246 302,-252 296,-252"/>
<text text-anchor="middle" x="281" y="-231.5" font-family="sans" font-size="10.00">limma</text>
</g>
<!-- 1&#45;&gt;21 -->
<g id="edge44" class="edge">
<title>1&#45;&gt;21</title>
<path fill="none" stroke="grey" stroke-width="2" d="M205,-287.15C216.99,-278.93 231.43,-269.02 244.49,-260.06"/>
<polygon fill="grey" stroke="grey" stroke-width="2" points="246.28,-263.07 252.55,-254.53 242.32,-257.3 246.28,-263.07"/>
</g>
<!-- 2 -->
<g id="node3" class="node">
<title>2</title>
<path fill="none" stroke="#d8bc56" stroke-width="2" d="M297,-396C297,-396 267,-396 267,-396 261,-396 255,-390 255,-384 255,-384 255,-372 255,-372 255,-366 261,-360 267,-360 267,-360 297,-360 297,-360 303,-360 309,-366 309,-372 309,-372 309,-384 309,-384 309,-390 303,-396 297,-396"/>
<text text-anchor="middle" x="282" y="-375.5" font-family="sans" font-size="10.00">filter</text>
</g>
<!-- 2&#45;&gt;0 -->
<g id="edge6" class="edge">
<title>2&#45;&gt;0</title>
<path fill="none" stroke="grey" stroke-width="2" d="M254.22,-371.48C197.99,-358.53 76,-320.57 76,-235 76,-235 76,-235 76,-161 76,-108.7 106.9,-96.71 153,-72 217.46,-37.44 436.95,-24.48 528.44,-20.51"/>
<polygon fill="grey" stroke="grey" stroke-width="2" points="528.36,-24.01 538.21,-20.1 528.07,-17.02 528.36,-24.01"/>
</g>
<!-- 2&#45;&gt;1 -->
<g id="edge23" class="edge">
<title>2&#45;&gt;1</title>
<path fill="none" stroke="grey" stroke-width="2" d="M255.74,-359.15C243.64,-350.93 229.06,-341.02 215.87,-332.06"/>
<polygon fill="grey" stroke="grey" stroke-width="2" points="217.95,-329.24 207.71,-326.51 214.02,-335.03 217.95,-329.24"/>
</g>
<!-- 9 -->
<g id="node10" class="node">
<title>9</title>
<path fill="none" stroke="#566bd8" stroke-width="2" d="M269.5,-324C269.5,-324 236.5,-324 236.5,-324 230.5,-324 224.5,-318 224.5,-312 224.5,-312 224.5,-300 224.5,-300 224.5,-294 230.5,-288 236.5,-288 236.5,-288 269.5,-288 269.5,-288 275.5,-288 281.5,-294 281.5,-300 281.5,-300 281.5,-312 281.5,-312 281.5,-318 275.5,-324 269.5,-324"/>
<text text-anchor="middle" x="253" y="-303.5" font-family="sans" font-size="10.00">contrasts</text>
</g>
<!-- 2&#45;&gt;9 -->
<g id="edge31" class="edge">
<title>2&#45;&gt;9</title>
<path fill="none" stroke="grey" stroke-width="2" d="M274.68,-359.34C271.85,-352.51 268.54,-344.5 265.36,-336.83"/>
<polygon fill="grey" stroke="grey" stroke-width="2" points="268.64,-335.6 261.58,-327.7 262.17,-338.28 268.64,-335.6"/>
</g>
<!-- 10 -->
<g id="node11" class="node">
<title>10</title>
<path fill="none" stroke="#569ad8" stroke-width="2" d="M692,-180C692,-180 662,-180 662,-180 656,-180 650,-174 650,-168 650,-168 650,-156 650,-156 650,-150 656,-144 662,-144 662,-144 692,-144 692,-144 698,-144 704,-150 704,-156 704,-156 704,-168 704,-168 704,-174 698,-180 692,-180"/>
<text text-anchor="middle" x="677" y="-159.5" font-family="sans" font-size="10.00">correct</text>
</g>
<!-- 2&#45;&gt;10 -->
<g id="edge32" class="edge">
<title>2&#45;&gt;10</title>
<path fill="none" stroke="grey" stroke-width="2" d="M309.78,-361.95C378.9,-324.5 558.8,-227.04 638.28,-183.98"/>
<polygon fill="grey" stroke="grey" stroke-width="2" points="639.47,-187.31 646.59,-179.47 636.13,-181.16 639.47,-187.31"/>
</g>
<!-- 2&#45;&gt;21 -->
<g id="edge45" class="edge">
<title>2&#45;&gt;21</title>
<path fill="none" stroke="grey" stroke-width="2" d="M285.33,-359.41C287.11,-349.13 289.11,-335.88 290,-324 291.2,-308.04 291.34,-303.94 290,-288 289.37,-280.56 288.26,-272.59 287.02,-265.16"/>
<polygon fill="grey" stroke="grey" stroke-width="2" points="290.51,-264.77 285.29,-255.55 283.62,-266.01 290.51,-264.77"/>
</g>
<!-- 3 -->
<g id="node4" class="node">
<title>3</title>
<path fill="none" stroke="#bed856" stroke-width="2" d="M374,-468C374,-468 344,-468 344,-468 338,-468 332,-462 332,-456 332,-456 332,-444 332,-444 332,-438 338,-432 344,-432 344,-432 374,-432 374,-432 380,-432 386,-438 386,-444 386,-444 386,-456 386,-456 386,-462 380,-468 374,-468"/>
<text text-anchor="middle" x="359" y="-447.5" font-family="sans" font-size="10.00">annotate</text>
</g>
<!-- 3&#45;&gt;0 -->
<g id="edge9" class="edge">
<title>3&#45;&gt;0</title>
<path fill="none" stroke="grey" stroke-width="2" d="M331.07,-449.28C252.98,-448.48 38,-434.67 38,-307 38,-307 38,-307 38,-161 38,-114.73 53,-96.89 92,-72 163.93,-26.09 426.14,-19.72 528.07,-19"/>
<polygon fill="grey" stroke="grey" stroke-width="2" points="528.07,-22.5 538.05,-18.95 528.04,-15.5 528.07,-22.5"/>
</g>
<!-- 3&#45;&gt;2 -->
<g id="edge24" class="edge">
<title>3&#45;&gt;2</title>
<path fill="none" stroke="grey" stroke-width="2" d="M339.57,-431.34C330.97,-423.52 320.68,-414.16 311.19,-405.53"/>
<polygon fill="grey" stroke="grey" stroke-width="2" points="313.69,-403.07 303.93,-398.94 308.98,-408.25 313.69,-403.07"/>
</g>
<!-- 11 -->
<g id="node12" class="node">
<title>11</title>
<path fill="none" stroke="#567bd8" stroke-width="2" d="M834,-252C834,-252 804,-252 804,-252 798,-252 792,-246 792,-240 792,-240 792,-228 792,-228 792,-222 798,-216 804,-216 804,-216 834,-216 834,-216 840,-216 846,-222 846,-228 846,-228 846,-240 846,-240 846,-246 840,-252 834,-252"/>
<text text-anchor="middle" x="819" y="-231.5" font-family="sans" font-size="10.00">hist</text>
</g>
<!-- 3&#45;&gt;11 -->
<g id="edge33" class="edge">
<title>3&#45;&gt;11</title>
<path fill="none" stroke="grey" stroke-width="2" d="M386.74,-436.1C465.11,-399.64 688.38,-295.77 779.52,-253.37"/>
<polygon fill="grey" stroke="grey" stroke-width="2" points="780.89,-256.59 788.48,-249.2 777.94,-250.24 780.89,-256.59"/>
</g>
<!-- 4 -->
<g id="node5" class="node">
<title>4</title>
<path fill="none" stroke="#afd856" stroke-width="2" d="M336.5,-540C336.5,-540 301.5,-540 301.5,-540 295.5,-540 289.5,-534 289.5,-528 289.5,-528 289.5,-516 289.5,-516 289.5,-510 295.5,-504 301.5,-504 301.5,-504 336.5,-504 336.5,-504 342.5,-504 348.5,-510 348.5,-516 348.5,-516 348.5,-528 348.5,-528 348.5,-534 342.5,-540 336.5,-540"/>
<text text-anchor="middle" x="319" y="-519.5" font-family="sans" font-size="10.00">normalize</text>
</g>
<!-- 4&#45;&gt;0 -->
<g id="edge10" class="edge">
<title>4&#45;&gt;0</title>
<path fill="none" stroke="grey" stroke-width="2" d="M288.7,-521.18C209.07,-519.92 0,-504.64 0,-379 0,-379 0,-379 0,-161 0,-116.06 10.63,-96.96 48,-72 126.4,-19.65 419.67,-17.33 528.24,-18.34"/>
<polygon fill="grey" stroke="grey" stroke-width="2" points="528.06,-21.84 538.1,-18.45 528.14,-14.84 528.06,-21.84"/>
</g>
<!-- 4&#45;&gt;3 -->
<g id="edge25" class="edge">
<title>4&#45;&gt;3</title>
<path fill="none" stroke="grey" stroke-width="2" d="M329.09,-503.34C333.14,-496.26 337.9,-487.92 342.43,-480"/>
<polygon fill="grey" stroke="grey" stroke-width="2" points="345.35,-481.95 347.27,-471.53 339.27,-478.48 345.35,-481.95"/>
</g>
<!-- 5 -->
<g id="node6" class="node">
<title>5</title>
<path fill="none" stroke="#ced856" stroke-width="2" d="M389,-612C389,-612 359,-612 359,-612 353,-612 347,-606 347,-600 347,-600 347,-588 347,-588 347,-582 353,-576 359,-576 359,-576 389,-576 389,-576 395,-576 401,-582 401,-588 401,-588 401,-600 401,-600 401,-606 395,-612 389,-612"/>
<text text-anchor="middle" x="374" y="-591.5" font-family="sans" font-size="10.00">import</text>
</g>
<!-- 5&#45;&gt;0 -->
<g id="edge8" class="edge">
<title>5&#45;&gt;0</title>
<path fill="none" stroke="grey" stroke-width="2" d="M401.68,-591.27C546.05,-581.91 1206,-534.52 1206,-451 1206,-451 1206,-451 1206,-161 1206,-118.5 1205.04,-97.45 1171,-72 1126.15,-38.47 737.5,-24.01 609.61,-20.13"/>
<polygon fill="grey" stroke="grey" stroke-width="2" points="609.82,-16.63 599.72,-19.83 609.61,-23.63 609.82,-16.63"/>
</g>
<!-- 5&#45;&gt;4 -->
<g id="edge28" class="edge">
<title>5&#45;&gt;4</title>
<path fill="none" stroke="grey" stroke-width="2" d="M360.12,-575.34C354.3,-567.93 347.4,-559.14 340.92,-550.9"/>
<polygon fill="grey" stroke="grey" stroke-width="2" points="343.87,-548.98 334.94,-543.28 338.36,-553.31 343.87,-548.98"/>
</g>
<!-- 6 -->
<g id="node7" class="node">
<title>6</title>
<path fill="none" stroke="#d85656" stroke-width="2" d="M361,-684C361,-684 331,-684 331,-684 325,-684 319,-678 319,-672 319,-672 319,-660 319,-660 319,-654 325,-648 331,-648 331,-648 361,-648 361,-648 367,-648 373,-654 373,-660 373,-660 373,-672 373,-672 373,-678 367,-684 361,-684"/>
<text text-anchor="middle" x="346" y="-663.5" font-family="sans" font-size="10.00">platform</text>
</g>
<!-- 6&#45;&gt;4 -->
<g id="edge29" class="edge">
<title>6&#45;&gt;4</title>
<path fill="none" stroke="grey" stroke-width="2" d="M342.58,-647.02C338.1,-623.44 330.17,-581.73 324.75,-553.25"/>
<polygon fill="grey" stroke="grey" stroke-width="2" points="328.26,-552.98 322.96,-543.81 321.39,-554.29 328.26,-552.98"/>
</g>
<!-- 6&#45;&gt;5 -->
<g id="edge30" class="edge">
<title>6&#45;&gt;5</title>
<path fill="none" stroke="grey" stroke-width="2" d="M353.07,-647.34C355.8,-640.51 359,-632.5 362.07,-624.83"/>
<polygon fill="grey" stroke="grey" stroke-width="2" points="365.25,-626.3 365.72,-615.71 358.75,-623.7 365.25,-626.3"/>
</g>
<!-- 7 -->
<g id="node8" class="node">
<title>7</title>
<path fill="none" stroke="#568ad8" stroke-width="2" d="M417,-540C417,-540 379,-540 379,-540 373,-540 367,-534 367,-528 367,-528 367,-516 367,-516 367,-510 373,-504 379,-504 379,-504 417,-504 417,-504 423,-504 429,-510 429,-516 429,-516 429,-528 429,-528 429,-534 423,-540 417,-540"/>
<text text-anchor="middle" x="398" y="-519.5" font-family="sans" font-size="10.00">annotation</text>
</g>
<!-- 7&#45;&gt;3 -->
<g id="edge27" class="edge">
<title>7&#45;&gt;3</title>
<path fill="none" stroke="grey" stroke-width="2" d="M388.16,-503.34C384.26,-496.34 379.68,-488.12 375.31,-480.28"/>
<polygon fill="grey" stroke="grey" stroke-width="2" points="378.37,-478.58 370.45,-471.55 372.26,-481.99 378.37,-478.58"/>
</g>
<!-- 8 -->
<g id="node9" class="node">
<title>8</title>
<path fill="none" stroke="#56d8c1" stroke-width="2" d="M794,-540C794,-540 762,-540 762,-540 756,-540 750,-534 750,-528 750,-528 750,-516 750,-516 750,-510 756,-504 762,-504 762,-504 794,-504 794,-504 800,-504 806,-510 806,-516 806,-516 806,-528 806,-528 806,-534 800,-540 794,-540"/>
<text text-anchor="middle" x="778" y="-519.5" font-family="sans" font-size="10.00">organism</text>
</g>
<!-- 8&#45;&gt;3 -->
<g id="edge26" class="edge">
<title>8&#45;&gt;3</title>
<path fill="none" stroke="grey" stroke-width="2" d="M749.2,-516.19C676.27,-504 484.1,-471.9 399.71,-457.8"/>
<polygon fill="grey" stroke="grey" stroke-width="2" points="400.32,-454.36 389.88,-456.16 399.17,-461.26 400.32,-454.36"/>
</g>
<!-- 25 -->
<g id="node26" class="node">
<title>25</title>
<path fill="none" stroke="#d89c56" stroke-width="2" d="M1001,-180C1001,-180 971,-180 971,-180 965,-180 959,-174 959,-168 959,-168 959,-156 959,-156 959,-150 965,-144 971,-144 971,-144 1001,-144 1001,-144 1007,-144 1013,-150 1013,-156 1013,-156 1013,-168 1013,-168 1013,-174 1007,-180 1001,-180"/>
<text text-anchor="middle" x="986" y="-159.5" font-family="sans" font-size="10.00">goana</text>
</g>
<!-- 8&#45;&gt;25 -->
<g id="edge50" class="edge">
<title>8&#45;&gt;25</title>
<path fill="none" stroke="grey" stroke-width="2" d="M806.97,-506.36C845.82,-484.41 910,-439.08 910,-379 910,-379 910,-379 910,-305 910,-261.06 938.64,-217.56 960.75,-190.52"/>
<polygon fill="grey" stroke="grey" stroke-width="2" points="963.36,-192.85 967.17,-182.96 958.03,-188.31 963.36,-192.85"/>
</g>
<!-- 9&#45;&gt;0 -->
<g id="edge22" class="edge">
<title>9&#45;&gt;0</title>
<path fill="none" stroke="grey" stroke-width="2" d="M239.69,-287.05C209.77,-244.34 143.92,-135.53 199,-72 241.27,-23.25 441.13,-18.26 528.25,-18.46"/>
<polygon fill="grey" stroke="grey" stroke-width="2" points="528.17,-21.96 538.19,-18.51 528.21,-14.96 528.17,-21.96"/>
</g>
<!-- 9&#45;&gt;21 -->
<g id="edge43" class="edge">
<title>9&#45;&gt;21</title>
<path fill="none" stroke="grey" stroke-width="2" d="M260.07,-287.34C262.8,-280.51 266,-272.5 269.07,-264.83"/>
<polygon fill="grey" stroke="grey" stroke-width="2" points="272.25,-266.3 272.72,-255.71 265.75,-263.7 272.25,-266.3"/>
</g>
<!-- 10&#45;&gt;0 -->
<g id="edge20" class="edge">
<title>10&#45;&gt;0</title>
<path fill="none" stroke="grey" stroke-width="2" d="M704.9,-160.84C776.35,-159.79 962.99,-152.74 1001,-108 1011.36,-95.81 1011.6,-83.98 1001,-72 975.27,-42.92 712.42,-26.37 609.76,-20.98"/>
<polygon fill="grey" stroke="grey" stroke-width="2" points="610.13,-17.49 599.96,-20.47 609.77,-24.48 610.13,-17.49"/>
</g>
<!-- 12 -->
<g id="node13" class="node">
<title>12</title>
<path fill="none" stroke="#d88d56" stroke-width="2" d="M476,-108C476,-108 446,-108 446,-108 440,-108 434,-102 434,-96 434,-96 434,-84 434,-84 434,-78 440,-72 446,-72 446,-72 476,-72 476,-72 482,-72 488,-78 488,-84 488,-84 488,-96 488,-96 488,-102 482,-108 476,-108"/>
<text text-anchor="middle" x="461" y="-87.5" font-family="sans" font-size="10.00">boxplot</text>
</g>
<!-- 10&#45;&gt;12 -->
<g id="edge34" class="edge">
<title>10&#45;&gt;12</title>
<path fill="none" stroke="grey" stroke-width="2" d="M649.12,-154.22C615.73,-145.81 558,-130.29 500.89,-109.2"/>
<polygon fill="grey" stroke="grey" stroke-width="2" points="502.15,-105.93 491.56,-105.68 499.68,-112.48 502.15,-105.93"/>
</g>
<!-- 13 -->
<g id="node14" class="node">
<title>13</title>
<path fill="none" stroke="#56d86b" stroke-width="2" d="M548,-108C548,-108 518,-108 518,-108 512,-108 506,-102 506,-96 506,-96 506,-84 506,-84 506,-78 512,-72 518,-72 518,-72 548,-72 548,-72 554,-72 560,-78 560,-84 560,-84 560,-96 560,-96 560,-102 554,-108 548,-108"/>
<text text-anchor="middle" x="533" y="-87.5" font-family="sans" font-size="10.00">pca</text>
</g>
<!-- 10&#45;&gt;13 -->
<g id="edge35" class="edge">
<title>10&#45;&gt;13</title>
<path fill="none" stroke="grey" stroke-width="2" d="M649.24,-147.5C627.32,-136.85 596.48,-121.86 572.08,-110"/>
<polygon fill="grey" stroke="grey" stroke-width="2" points="573.93,-107 563.4,-105.78 570.87,-113.3 573.93,-107"/>
</g>
<!-- 14 -->
<g id="node15" class="node">
<title>14</title>
<path fill="none" stroke="#78d856" stroke-width="2" d="M620,-108C620,-108 590,-108 590,-108 584,-108 578,-102 578,-96 578,-96 578,-84 578,-84 578,-78 584,-72 590,-72 590,-72 620,-72 620,-72 626,-72 632,-78 632,-84 632,-84 632,-96 632,-96 632,-102 626,-108 620,-108"/>
<text text-anchor="middle" x="605" y="-87.5" font-family="sans" font-size="10.00">ma</text>
</g>
<!-- 10&#45;&gt;14 -->
<g id="edge36" class="edge">
<title>10&#45;&gt;14</title>
<path fill="none" stroke="grey" stroke-width="2" d="M658.83,-143.34C650.88,-135.6 641.37,-126.36 632.57,-117.81"/>
<polygon fill="grey" stroke="grey" stroke-width="2" points="635.19,-115.47 625.58,-111.01 630.31,-120.49 635.19,-115.47"/>
</g>
<!-- 15 -->
<g id="node16" class="node">
<title>15</title>
<path fill="none" stroke="#56d8a9" stroke-width="2" d="M692,-108C692,-108 662,-108 662,-108 656,-108 650,-102 650,-96 650,-96 650,-84 650,-84 650,-78 656,-72 662,-72 662,-72 692,-72 692,-72 698,-72 704,-78 704,-84 704,-84 704,-96 704,-96 704,-102 698,-108 692,-108"/>
<text text-anchor="middle" x="677" y="-87.5" font-family="sans" font-size="10.00">mds</text>
</g>
<!-- 10&#45;&gt;15 -->
<g id="edge37" class="edge">
<title>10&#45;&gt;15</title>
<path fill="none" stroke="grey" stroke-width="2" d="M677,-143.34C677,-136.75 677,-129.08 677,-121.67"/>
<polygon fill="grey" stroke="grey" stroke-width="2" points="680.5,-121.93 677,-111.93 673.5,-121.93 680.5,-121.93"/>
</g>
<!-- 16 -->
<g id="node17" class="node">
<title>16</title>
<path fill="none" stroke="#56d88a" stroke-width="2" d="M764,-108C764,-108 734,-108 734,-108 728,-108 722,-102 722,-96 722,-96 722,-84 722,-84 722,-78 728,-72 734,-72 734,-72 764,-72 764,-72 770,-72 776,-78 776,-84 776,-84 776,-96 776,-96 776,-102 770,-108 764,-108"/>
<text text-anchor="middle" x="749" y="-87.5" font-family="sans" font-size="10.00">dens</text>
</g>
<!-- 10&#45;&gt;16 -->
<g id="edge38" class="edge">
<title>10&#45;&gt;16</title>
<path fill="none" stroke="grey" stroke-width="2" d="M695.17,-143.34C703.12,-135.6 712.63,-126.36 721.43,-117.81"/>
<polygon fill="grey" stroke="grey" stroke-width="2" points="723.69,-120.49 728.42,-111.01 718.81,-115.47 723.69,-120.49"/>
</g>
<!-- 17 -->
<g id="node18" class="node">
<title>17</title>
<path fill="none" stroke="#d87556" stroke-width="2" d="M836,-108C836,-108 806,-108 806,-108 800,-108 794,-102 794,-96 794,-96 794,-84 794,-84 794,-78 800,-72 806,-72 806,-72 836,-72 836,-72 842,-72 848,-78 848,-84 848,-84 848,-96 848,-96 848,-102 842,-108 836,-108"/>
<text text-anchor="middle" x="821" y="-87.5" font-family="sans" font-size="10.00">hm</text>
</g>
<!-- 10&#45;&gt;17 -->
<g id="edge39" class="edge">
<title>10&#45;&gt;17</title>
<path fill="none" stroke="grey" stroke-width="2" d="M704.76,-147.5C726.68,-136.85 757.52,-121.86 781.92,-110"/>
<polygon fill="grey" stroke="grey" stroke-width="2" points="783.13,-113.3 790.6,-105.78 780.07,-107 783.13,-113.3"/>
</g>
<!-- 18 -->
<g id="node19" class="node">
<title>18</title>
<path fill="none" stroke="#56d87b" stroke-width="2" d="M908,-108C908,-108 878,-108 878,-108 872,-108 866,-102 866,-96 866,-96 866,-84 866,-84 866,-78 872,-72 878,-72 878,-72 908,-72 908,-72 914,-72 920,-78 920,-84 920,-84 920,-96 920,-96 920,-102 914,-108 908,-108"/>
<text text-anchor="middle" x="893" y="-87.5" font-family="sans" font-size="10.00">msd</text>
</g>
<!-- 10&#45;&gt;18 -->
<g id="edge40" class="edge">
<title>10&#45;&gt;18</title>
<path fill="none" stroke="grey" stroke-width="2" d="M704.88,-154.22C738.27,-145.81 796,-130.29 853.11,-109.2"/>
<polygon fill="grey" stroke="grey" stroke-width="2" points="854.32,-112.48 862.44,-105.68 851.85,-105.93 854.32,-112.48"/>
</g>
<!-- 19 -->
<g id="node20" class="node">
<title>19</title>
<path fill="none" stroke="#88d856" stroke-width="2" d="M980,-108C980,-108 950,-108 950,-108 944,-108 938,-102 938,-96 938,-96 938,-84 938,-84 938,-78 944,-72 950,-72 950,-72 980,-72 980,-72 986,-72 992,-78 992,-84 992,-84 992,-96 992,-96 992,-102 986,-108 980,-108"/>
<text text-anchor="middle" x="965" y="-87.5" font-family="sans" font-size="10.00">rle</text>
</g>
<!-- 10&#45;&gt;19 -->
<g id="edge41" class="edge">
<title>10&#45;&gt;19</title>
<path fill="none" stroke="grey" stroke-width="2" d="M704.78,-157.33C749.66,-150.94 840.87,-136.08 925.24,-108.85"/>
<polygon fill="grey" stroke="grey" stroke-width="2" points="926.09,-112.26 934.48,-105.79 923.89,-105.61 926.09,-112.26"/>
</g>
<!-- 24 -->
<g id="node25" class="node">
<title>24</title>
<path fill="none" stroke="#68d856" stroke-width="2" d="M404,-108C404,-108 374,-108 374,-108 368,-108 362,-102 362,-96 362,-96 362,-84 362,-84 362,-78 368,-72 374,-72 374,-72 404,-72 404,-72 410,-72 416,-78 416,-84 416,-84 416,-96 416,-96 416,-102 410,-108 404,-108"/>
<text text-anchor="middle" x="389" y="-87.5" font-family="sans" font-size="10.00">heatmap</text>
</g>
<!-- 10&#45;&gt;24 -->
<g id="edge48" class="edge">
<title>10&#45;&gt;24</title>
<path fill="none" stroke="grey" stroke-width="2" d="M649.22,-157.33C604.34,-150.94 513.13,-136.08 428.76,-108.85"/>
<polygon fill="grey" stroke="grey" stroke-width="2" points="430.11,-105.61 419.52,-105.79 427.91,-112.26 430.11,-105.61"/>
</g>
<!-- 11&#45;&gt;0 -->
<g id="edge21" class="edge">
<title>11&#45;&gt;0</title>
<path fill="none" stroke="grey" stroke-width="2" d="M846.79,-229.96C941.69,-218.61 1242.04,-173.93 1149,-72 1112.7,-32.23 735.32,-21.95 609.54,-19.62"/>
<polygon fill="grey" stroke="grey" stroke-width="2" points="609.91,-16.12 599.85,-19.45 609.79,-23.12 609.91,-16.12"/>
</g>
<!-- 12&#45;&gt;0 -->
<g id="edge3" class="edge">
<title>12&#45;&gt;0</title>
<path fill="none" stroke="grey" stroke-width="2" d="M488.53,-71.15C501.35,-62.84 516.82,-52.82 530.75,-43.79"/>
<polygon fill="grey" stroke="grey" stroke-width="2" points="532.49,-46.83 538.98,-38.46 528.68,-40.96 532.49,-46.83"/>
</g>
<!-- 13&#45;&gt;0 -->
<g id="edge15" class="edge">
<title>13&#45;&gt;0</title>
<path fill="none" stroke="grey" stroke-width="2" d="M542.08,-71.34C545.68,-64.34 549.91,-56.12 553.94,-48.28"/>
<polygon fill="grey" stroke="grey" stroke-width="2" points="556.95,-50.09 558.41,-39.59 550.72,-46.89 556.95,-50.09"/>
</g>
<!-- 14&#45;&gt;0 -->
<g id="edge12" class="edge">
<title>14&#45;&gt;0</title>
<path fill="none" stroke="grey" stroke-width="2" d="M595.92,-71.34C592.32,-64.34 588.09,-56.12 584.06,-48.28"/>
<polygon fill="grey" stroke="grey" stroke-width="2" points="587.28,-46.89 579.59,-39.59 581.05,-50.09 587.28,-46.89"/>
</g>
<!-- 15&#45;&gt;0 -->
<g id="edge17" class="edge">
<title>15&#45;&gt;0</title>
<path fill="none" stroke="grey" stroke-width="2" d="M649.47,-71.15C636.65,-62.84 621.18,-52.82 607.25,-43.79"/>
<polygon fill="grey" stroke="grey" stroke-width="2" points="609.32,-40.96 599.02,-38.46 605.51,-46.83 609.32,-40.96"/>
</g>
<!-- 16&#45;&gt;0 -->
<g id="edge16" class="edge">
<title>16&#45;&gt;0</title>
<path fill="none" stroke="grey" stroke-width="2" d="M721.2,-75.58C718.45,-74.33 715.68,-73.12 713,-72 678.33,-57.47 638.13,-42.85 609.02,-32.66"/>
<polygon fill="grey" stroke="grey" stroke-width="2" points="610.34,-29.41 599.75,-29.44 608.04,-36.03 610.34,-29.41"/>
</g>
<!-- 17&#45;&gt;0 -->
<g id="edge2" class="edge">
<title>17&#45;&gt;0</title>
<path fill="none" stroke="grey" stroke-width="2" d="M793.32,-75.26C790.54,-74.08 787.74,-72.97 785,-72 725.31,-50.82 653.43,-35.03 609.49,-26.41"/>
<polygon fill="grey" stroke="grey" stroke-width="2" points="610.25,-22.99 599.77,-24.54 608.93,-29.86 610.25,-22.99"/>
</g>
<!-- 18&#45;&gt;0 -->
<g id="edge14" class="edge">
<title>18&#45;&gt;0</title>
<path fill="none" stroke="grey" stroke-width="2" d="M865.38,-75.09C862.59,-73.95 859.76,-72.89 857,-72 771.21,-44.37 666.12,-29.59 609.61,-23.11"/>
<polygon fill="grey" stroke="grey" stroke-width="2" points="610.32,-19.67 599.99,-22.05 609.55,-26.63 610.32,-19.67"/>
</g>
<!-- 19&#45;&gt;0 -->
<g id="edge11" class="edge">
<title>19&#45;&gt;0</title>
<path fill="none" stroke="grey" stroke-width="2" d="M937.01,-74.82C934.34,-73.77 931.65,-72.8 929,-72 816.42,-37.95 677.19,-25.4 609.61,-21.08"/>
<polygon fill="grey" stroke="grey" stroke-width="2" points="609.91,-17.59 599.72,-20.48 609.49,-24.58 609.91,-17.59"/>
</g>
<!-- 20 -->
<g id="node21" class="node">
<title>20</title>
<path fill="none" stroke="#56a9d8" stroke-width="2" d="M296,-180C296,-180 266,-180 266,-180 260,-180 254,-174 254,-168 254,-168 254,-156 254,-156 254,-150 260,-144 266,-144 266,-144 296,-144 296,-144 302,-144 308,-150 308,-156 308,-156 308,-168 308,-168 308,-174 302,-180 296,-180"/>
<text text-anchor="middle" x="281" y="-159.5" font-family="sans" font-size="10.00">toptable</text>
</g>
<!-- 20&#45;&gt;0 -->
<g id="edge19" class="edge">
<title>20&#45;&gt;0</title>
<path fill="none" stroke="grey" stroke-width="2" d="M253.19,-148.61C237.1,-139.8 218.24,-126.28 209,-108 201.78,-93.72 198.54,-84.11 209,-72 249.87,-24.68 442.77,-18.85 528.16,-18.64"/>
<polygon fill="grey" stroke="grey" stroke-width="2" points="528.11,-22.14 538.11,-18.65 528.12,-15.14 528.11,-22.14"/>
</g>
<!-- 22 -->
<g id="node23" class="node">
<title>22</title>
<path fill="none" stroke="#d8ac56" stroke-width="2" d="M260,-108C260,-108 230,-108 230,-108 224,-108 218,-102 218,-96 218,-96 218,-84 218,-84 218,-78 224,-72 230,-72 230,-72 260,-72 260,-72 266,-72 272,-78 272,-84 272,-84 272,-96 272,-96 272,-102 266,-108 260,-108"/>
<text text-anchor="middle" x="245" y="-87.5" font-family="sans" font-size="10.00">pvalue</text>
</g>
<!-- 20&#45;&gt;22 -->
<g id="edge46" class="edge">
<title>20&#45;&gt;22</title>
<path fill="none" stroke="grey" stroke-width="2" d="M271.92,-143.34C268.32,-136.34 264.09,-128.12 260.06,-120.28"/>
<polygon fill="grey" stroke="grey" stroke-width="2" points="263.28,-118.89 255.59,-111.59 257.05,-122.09 263.28,-118.89"/>
</g>
<!-- 23 -->
<g id="node24" class="node">
<title>23</title>
<path fill="none" stroke="#d8d356" stroke-width="2" d="M332,-108C332,-108 302,-108 302,-108 296,-108 290,-102 290,-96 290,-96 290,-84 290,-84 290,-78 296,-72 302,-72 302,-72 332,-72 332,-72 338,-72 344,-78 344,-84 344,-84 344,-96 344,-96 344,-102 338,-108 332,-108"/>
<text text-anchor="middle" x="317" y="-87.5" font-family="sans" font-size="10.00">volcano</text>
</g>
<!-- 20&#45;&gt;23 -->
<g id="edge47" class="edge">
<title>20&#45;&gt;23</title>
<path fill="none" stroke="grey" stroke-width="2" d="M290.08,-143.34C293.68,-136.34 297.91,-128.12 301.94,-120.28"/>
<polygon fill="grey" stroke="grey" stroke-width="2" points="304.95,-122.09 306.41,-111.59 298.72,-118.89 304.95,-122.09"/>
</g>
<!-- 20&#45;&gt;24 -->
<g id="edge49" class="edge">
<title>20&#45;&gt;24</title>
<path fill="none" stroke="grey" stroke-width="2" d="M308.53,-143.15C321.35,-134.84 336.82,-124.82 350.75,-115.79"/>
<polygon fill="grey" stroke="grey" stroke-width="2" points="352.49,-118.83 358.98,-110.46 348.68,-112.96 352.49,-118.83"/>
</g>
<!-- 21&#45;&gt;20 -->
<g id="edge42" class="edge">
<title>21&#45;&gt;20</title>
<path fill="none" stroke="grey" stroke-width="2" d="M281,-215.34C281,-208.75 281,-201.08 281,-193.67"/>
<polygon fill="grey" stroke="grey" stroke-width="2" points="284.5,-193.93 281,-183.93 277.5,-193.93 284.5,-193.93"/>
</g>
<!-- 21&#45;&gt;25 -->
<g id="edge51" class="edge">
<title>21&#45;&gt;25</title>
<path fill="none" stroke="grey" stroke-width="2" d="M308.64,-230.26C417.44,-219.45 816.56,-179.82 945.52,-167.02"/>
<polygon fill="grey" stroke="grey" stroke-width="2" points="945.55,-170.53 955.16,-166.06 944.86,-163.57 945.55,-170.53"/>
</g>
<!-- 22&#45;&gt;0 -->
<g id="edge5" class="edge">
<title>22&#45;&gt;0</title>
<path fill="none" stroke="grey" stroke-width="2" d="M272.62,-75.09C275.41,-73.95 278.24,-72.89 281,-72 366.79,-44.37 471.88,-29.59 528.39,-23.11"/>
<polygon fill="grey" stroke="grey" stroke-width="2" points="528.45,-26.63 538.01,-22.05 527.68,-19.67 528.45,-26.63"/>
</g>
<!-- 23&#45;&gt;0 -->
<g id="edge7" class="edge">
<title>23&#45;&gt;0</title>
<path fill="none" stroke="grey" stroke-width="2" d="M344.68,-75.26C347.46,-74.08 350.26,-72.97 353,-72 412.69,-50.82 484.57,-35.03 528.51,-26.41"/>
<polygon fill="grey" stroke="grey" stroke-width="2" points="529.07,-29.86 538.23,-24.54 527.75,-22.99 529.07,-29.86"/>
</g>
<!-- 24&#45;&gt;0 -->
<g id="edge13" class="edge">
<title>24&#45;&gt;0</title>
<path fill="none" stroke="grey" stroke-width="2" d="M416.8,-75.58C419.55,-74.33 422.32,-73.12 425,-72 459.67,-57.47 499.87,-42.85 528.98,-32.66"/>
<polygon fill="grey" stroke="grey" stroke-width="2" points="529.96,-36.03 538.25,-29.44 527.66,-29.41 529.96,-36.03"/>
</g>
<!-- 25&#45;&gt;0 -->
<g id="edge4" class="edge">
<title>25&#45;&gt;0</title>
<path fill="none" stroke="grey" stroke-width="2" d="M1001.8,-143.29C1017.28,-123.75 1036.11,-92.37 1018,-72 991.05,-41.69 714.93,-25.77 609.56,-20.77"/>
<polygon fill="grey" stroke="grey" stroke-width="2" points="609.9,-17.28 599.75,-20.31 609.57,-24.27 609.9,-17.28"/>
</g>
<!-- 26 -->
<g id="node27" class="node">
<title>26</title>
<path fill="none" stroke="#d86656" stroke-width="2" d="M1128,-108C1128,-108 1098,-108 1098,-108 1092,-108 1086,-102 1086,-96 1086,-96 1086,-84 1086,-84 1086,-78 1092,-72 1098,-72 1098,-72 1128,-72 1128,-72 1134,-72 1140,-78 1140,-84 1140,-84 1140,-96 1140,-96 1140,-102 1134,-108 1128,-108"/>
<text text-anchor="middle" x="1113" y="-87.5" font-family="sans" font-size="10.00">topgo</text>
</g>
<!-- 25&#45;&gt;26 -->
<g id="edge52" class="edge">
<title>25&#45;&gt;26</title>
<path fill="none" stroke="grey" stroke-width="2" d="M1013.87,-145.64C1031.49,-135.93 1054.52,-123.23 1073.94,-112.53"/>
<polygon fill="grey" stroke="grey" stroke-width="2" points="1075.47,-115.68 1082.54,-107.79 1072.1,-109.55 1075.47,-115.68"/>
</g>
<!-- 26&#45;&gt;0 -->
<g id="edge1" class="edge">
<title>26&#45;&gt;0</title>
<path fill="none" stroke="grey" stroke-width="2" d="M1085.13,-76.2C1080.8,-74.58 1076.33,-73.1 1072,-72 903.98,-29.27 695.94,-20.93 609.55,-19.34"/>
<polygon fill="grey" stroke="grey" stroke-width="2" points="609.83,-15.85 599.78,-19.19 609.72,-22.85 609.83,-15.85"/>
</g>
</g>
</svg>
